PathFileType	4	(X/Y/Z)	C:/Users/opensim2020/Desktop/walking_exp_matlab/subject01_walking13_straight_01.trc	
DataRate	CameraRate	NumFrames	NumMarkers	Units	OrigDataRate	OrigDataStartFrame	OrigNumFrames	
100.00	100.00	7	42	mm	100.00	619	142	
Frame#	Time	LFHD			RFHD			LBHD			RBHD			C7			T10			CLAV			STRN			RBAK			LSHO			LUPA			LELB			LFRM			LWRA			LWRB			LFIN			RSHO			RUPA			RELB			RFRM			RWRA			RWRB			RFIN			LASI			RASI			LPSI			RPSI			LTHI			LKNE			LTIB			LANK			LHEE			LTOE			RTHI			RKNE			RTIB			RANK			RHEE			RTOE			*39			*40			*41			
		X1	Y1	Z1	X2	Y2	Z2	X3	Y3	Z3	X4	Y4	Z4	X5	Y5	Z5	X6	Y6	Z6	X7	Y7	Z7	X8	Y8	Z8	X9	Y9	Z9	X10	Y10	Z10	X11	Y11	Z11	X12	Y12	Z12	X13	Y13	Z13	X14	Y14	Z14	X15	Y15	Z15	X16	Y16	Z16	X17	Y17	Z17	X18	Y18	Z18	X19	Y19	Z19	X20	Y20	Z20	X21	Y21	Z21	X22	Y22	Z22	X23	Y23	Z23	X24	Y24	Z24	X25	Y25	Z25	X26	Y26	Z26	X27	Y27	Z27	X28	Y28	Z28	X29	Y29	Z29	X30	Y30	Z30	X31	Y31	Z31	X32	Y32	Z32	X33	Y33	Z33	X34	Y34	Z34	X35	Y35	Z35	X36	Y36	Z36	X37	Y37	Z37	X38	Y38	Z38	X39	Y39	Z39	X40	Y40	Z40	X41	Y41	Z41	X42	Y42	Z42	

18	0.170	-1098.62756	-474.88733	1643.86145	-986.50439	-459.07367	1651.79468	-1087.34692	-584.22034	1584.81067	-967.81714	-570.09467	1591.30505	-1044.36694	-606.24860	1406.07813	-1032.72156	-659.47614	1115.97729	-1042.97827	-463.15509	1331.67236	-1054.73413	-430.42026	1173.99023	-970.17047	-671.54297	1213.18616	-1200.99731	-527.14209	1368.27917	-1305.87329	-540.58490	1200.57654	-1345.02722	-514.21930	1053.99280	-1359.77844	-404.57623	1006.21857	-1327.06177	-271.89258	991.51166	-1355.23718	-298.69943	946.92035	-1365.20825	-216.76454	944.83038	-891.38293	-528.84882	1359.68640	-795.92395	-625.71979	1173.03589	-786.09113	-645.25671	1052.23450	-750.34027	-647.64307	933.90063	-763.25659	-598.06348	800.35504	-726.64886	-641.91077	813.20050	-722.94843	-624.57214	729.49365	-1155.99500	-514.71204	896.28827	-940.44714	-483.75092	908.10156	-1071.56934	-689.26685	922.18677	-927.85010	-668.08087	921.29108	-1203.81458	-646.56555	586.60364	-1195.75037	-703.23962	460.78607	-1198.92493	-826.82068	315.23636	-1154.26831	-940.29779	123.40214	-1097.10083	-984.82080	115.20234	-1176.16882	-827.83795	28.88467	-876.72632	-431.88452	596.96027	-912.80139	-372.42197	453.73779	-903.57239	-386.45578	277.60788	-951.46881	-363.50281	73.93880	-1001.72766	-409.15930	32.95972	-955.44678	-222.71565	40.53038	-1009.15039	-475.64096	1682.78650	-3102.90820	1972.76721	1024.00354	-3140.33740	2012.60107	1021.99683 
19	0.180	-1096.62988	-462.55463	1645.39160	-984.62732	-446.53345	1653.08984	-1085.27759	-571.87500	1586.35266	-965.77838	-557.58154	1592.66174	-1042.71289	-593.99567	1407.10522	-1031.71936	-645.53046	1116.63269	-1041.55237	-450.12430	1333.28308	-1052.97009	-416.58127	1175.80945	-968.71429	-657.98883	1213.67261	-1199.42395	-514.39105	1369.47424	-1304.15344	-528.24097	1201.75159	-1343.71619	-503.20767	1055.20313	-1358.17151	-393.74295	1007.07471	-1325.64624	-260.93100	991.98773	-1354.02051	-288.04034	947.47693	-1363.62012	-206.04741	945.08368	-889.66144	-516.11487	1360.83289	-794.86108	-612.25439	1173.30933	-785.73541	-631.25171	1052.42358	-750.48108	-633.43530	933.98828	-763.68719	-583.71063	800.56287	-727.01361	-627.46631	813.00928	-723.50916	-610.42236	729.56482	-1154.50647	-499.62515	896.55725	-939.46265	-469.28922	909.50439	-1071.38354	-674.23560	923.28009	-927.18463	-653.36609	923.23596	-1203.99670	-631.48083	586.62073	-1196.27429	-687.27258	460.77304	-1199.86230	-814.86194	318.46509	-1155.51343	-933.71472	130.16812	-1098.22913	-977.85791	124.43191	-1176.04065	-826.81000	29.11149	-877.69916	-417.52591	598.74377	-913.31140	-360.95462	453.27344	-903.17065	-378.18765	277.24908	-951.16180	-359.39935	73.87138	-1000.54102	-406.41000	33.87136	-955.39117	-218.65584	38.60041	-1007.00610	-463.17032	1684.15833	-3102.27661	1973.03992	1024.10657	-3140.60205	2012.44446	1021.92102 
20	0.190	-1094.55200	-450.04132	1647.34192	-982.55011	-433.85077	1654.83069	-1083.19897	-559.56561	1588.46667	-963.64777	-544.96753	1594.44067	-1040.84460	-581.29413	1408.33105	-1030.80347	-631.42932	1117.69751	-1039.43396	-437.24274	1335.23438	-1051.16150	-402.66125	1178.03650	-967.10559	-644.27264	1214.49963	-1197.51917	-501.57178	1370.84814	-1302.37756	-516.14935	1203.15552	-1342.22815	-492.60837	1056.69043	-1356.79370	-383.36478	1007.86591	-1324.31079	-250.77612	991.84229	-1352.82434	-277.94730	947.69012	-1362.14807	-195.85417	944.71295	-887.79272	-503.30249	1362.41382	-793.62250	-598.43341	1174.07642	-785.27716	-616.82910	1053.02319	-750.53131	-618.77478	934.49005	-764.17285	-568.75299	801.18280	-727.69568	-612.25397	813.57416	-724.13629	-595.30695	730.29663	-1152.80420	-484.39783	897.30768	-938.35309	-454.76852	911.07678	-1071.06042	-659.30530	924.74908	-926.49200	-639.33551	925.65967	-1203.88940	-614.88879	586.61914	-1197.19849	-669.86847	460.51593	-1200.89880	-801.44830	321.96600	-1156.71509	-925.64258	137.38089	-1099.10388	-969.02692	134.30930	-1175.80261	-825.72113	29.59863	-876.52191	-405.07593	599.40070	-912.91565	-350.77780	452.93701	-901.29169	-368.96582	277.15268	-951.34100	-357.66522	73.33150	-1000.39575	-406.25067	34.71862	-955.19147	-216.99428	37.52555	-1004.86707	-450.51199	1685.88123	-3101.88794	1973.17468	1023.74365	-3140.55078	2012.53540	1021.95709 
21	0.200	-1092.46838	-437.40643	1649.55603	-980.63702	-421.31787	1656.89661	-1081.04480	-546.94330	1590.92029	-961.52936	-532.23505	1596.72302	-1039.03906	-568.46210	1409.93323	-1029.76917	-617.18579	1118.96631	-1038.04785	-424.27261	1337.65869	-1049.34607	-388.74918	1180.67517	-965.32306	-630.51953	1215.70374	-1195.80774	-488.77527	1372.56824	-1300.43799	-504.31445	1204.77380	-1340.29211	-482.28979	1058.08154	-1355.52820	-373.39752	1008.57361	-1322.90234	-240.97943	991.28534	-1351.51111	-268.49698	947.42474	-1360.67615	-186.27338	943.70734	-886.04645	-490.42068	1364.46594	-792.20447	-584.06433	1175.46252	-784.84796	-602.05939	1054.01111	-750.54553	-603.61768	935.37354	-764.80353	-553.21570	802.27423	-728.26862	-596.93750	814.36975	-724.84753	-579.20514	731.14282	-1150.83398	-469.13574	898.40747	-937.01794	-440.30338	912.74243	-1070.51941	-644.34857	926.50073	-925.57343	-624.41638	928.14630	-1203.98608	-596.99597	586.63800	-1198.40100	-650.77924	460.24026	-1202.11023	-786.64966	325.85678	-1157.93506	-916.07214	145.07938	-1099.78064	-958.20410	144.55937	-1175.71863	-824.39832	29.88652	-874.87231	-396.32852	598.64838	-912.67749	-341.30362	452.71753	-900.30853	-359.80939	277.29288	-951.54901	-357.03732	73.26803	-1000.11523	-405.82587	34.74868	-955.72455	-216.29108	36.88475	-1002.60620	-437.66821	1688.10168	-3101.92651	1973.19556	1023.73273	-3140.56494	2012.45154	1021.97595 
22	0.210	-1090.37085	-424.62924	1651.98865	-978.41132	-408.07736	1658.88818	-1078.92957	-534.33325	1593.79492	-959.44623	-519.44672	1599.25916	-1037.36523	-555.89880	1411.90552	-1028.43079	-603.17072	1120.57190	-1036.37671	-411.41110	1340.29871	-1047.50305	-374.93387	1183.57385	-963.33990	-616.86694	1217.26624	-1194.07764	-476.08371	1374.53186	-1298.52905	-492.72855	1206.61121	-1338.03882	-472.29047	1059.63757	-1353.38733	-364.03592	1009.07611	-1321.45313	-231.39885	990.33813	-1350.12903	-259.65100	946.75830	-1358.82605	-177.33508	941.92896	-884.36542	-477.83438	1366.61572	-790.73267	-569.83868	1176.94116	-784.22186	-587.15381	1055.45007	-750.49762	-588.14661	936.61694	-765.39960	-537.15424	803.74188	-728.73224	-581.26147	815.53351	-725.61658	-562.76385	732.43036	-1148.63000	-453.99860	900.00861	-935.43060	-426.08215	914.57196	-1069.92151	-629.60931	928.45111	-924.53961	-609.93994	931.24707	-1204.26514	-577.96667	586.66852	-1199.85706	-630.27124	459.95340	-1203.50610	-770.33020	329.90320	-1159.40588	-904.67645	152.98326	-1100.56873	-945.22955	155.06227	-1175.34204	-822.59363	30.17318	-873.63641	-388.74567	598.13275	-912.35327	-332.90179	452.77893	-900.54132	-353.64487	277.37747	-951.69366	-355.82535	73.35774	-1000.06738	-405.75272	35.07443	-956.05139	-215.15082	36.07011	-1000.45264	-424.62335	1690.43066	-3101.97705	1973.07520	1023.81964	-3140.57349	2012.54187	1021.96747 
23	0.220	-1088.38928	-411.75772	1654.58569	-976.39838	-395.02600	1661.15356	-1076.94202	-521.79071	1596.89331	-957.42993	-506.61661	1601.97351	-1035.65027	-543.10675	1413.75256	-1027.09607	-589.07794	1122.26538	-1034.89270	-398.58856	1343.18494	-1045.80298	-361.09341	1186.64844	-961.23853	-603.19617	1218.97351	-1192.76733	-463.66577	1376.90564	-1296.57446	-481.40756	1208.55151	-1335.65637	-462.50769	1061.44580	-1351.76135	-354.91275	1009.43579	-1320.00256	-222.42288	988.87207	-1348.57092	-251.36768	945.66565	-1357.34119	-169.01221	939.55780	-882.88043	-464.57965	1369.12793	-788.99701	-555.02557	1179.05811	-783.56213	-571.88708	1057.15894	-750.38556	-572.21698	938.12885	-765.98572	-520.54547	805.57281	-729.15503	-564.51410	816.99976	-726.47327	-545.54785	733.88641	-1146.18237	-438.96539	901.99841	-933.53021	-412.15921	916.34027	-1069.12146	-614.98285	930.75916	-923.43604	-595.63739	934.52905	-1204.54187	-557.97675	586.67346	-1200.98987	-608.59247	459.68088	-1204.84912	-752.65350	334.06091	-1161.39465	-891.58771	160.56810	-1101.55920	-930.52252	165.61775	-1174.33875	-820.18933	30.36080	-873.03156	-381.15396	597.79663	-911.91913	-325.67749	452.53278	-900.33685	-349.79114	277.32748	-951.74365	-355.49429	73.41525	-1000.12140	-405.93942	35.05753	-956.29120	-214.88943	35.91431	-998.43359	-411.42279	1692.73938	-3101.92065	1973.13062	1023.73743	-3140.61426	2012.55786	1021.95074 
24	0.230	-1086.33325	-398.80045	1657.22314	-974.56683	-382.10403	1663.59436	-1074.98950	-509.12170	1600.18701	-955.44629	-493.81506	1604.82117	-1034.09412	-530.73621	1415.92566	-1025.50635	-575.11829	1124.17188	-1033.28687	-385.84787	1346.06506	-1044.24854	-347.40790	1189.69922	-958.97040	-589.56030	1220.93091	-1190.95300	-451.32169	1379.10669	-1294.69299	-470.26462	1210.52502	-1333.21716	-452.98114	1063.24548	-1349.42456	-346.33960	1009.52850	-1318.52039	-213.93506	986.87750	-1346.88538	-243.63385	944.13983	-1355.81311	-161.32013	936.52783	-881.43042	-451.26758	1372.05896	-787.14215	-540.48682	1181.14685	-782.69434	-556.48383	1059.03650	-750.08783	-555.99866	939.91125	-766.57190	-503.40750	807.69843	-729.42889	-547.26196	818.69507	-727.54449	-527.70691	735.41711	-1143.65479	-424.21863	904.33276	-931.60883	-398.47095	918.15540	-1068.23413	-601.23566	933.41626	-922.36243	-581.80817	937.78180	-1204.76709	-537.24835	586.57172	-1201.79761	-586.25433	459.32632	-1205.64148	-733.51648	338.12833	-1163.66028	-877.46161	168.43044	-1103.06897	-914.83673	176.51715	-1174.11133	-817.37634	31.99448	-872.53503	-373.47513	597.95227	-910.89453	-319.16556	451.93460	-899.74524	-348.01590	277.19879	-951.81268	-355.57553	73.46402	-1000.20416	-405.90741	35.08015	-956.18848	-214.89676	35.70208	-996.17474	-398.07434	1695.43140	-3102.11206	1973.11182	1023.74445	-3140.64111	2012.54688	1021.94592 
